<svg xmlns="http://www.w3.org/2000/svg" viewBox="0 0 16.9 16.9" height="64" width="64"><g transform="matrix(.12 0 0 .12 -8.78 -4.33)"><path d="M139.6 37.8c-16.1 0-20.6.8-31.5 5.9C97.9 48.4 90.7 56.5 90.7 63c0 1.3.9 4.2 2.1 6.5 4.4 8.9 18.1 16.1 35.4 18.9a104 104 0 0 0 29.9-1.6c18.7-4.6 32-16.8 29.1-26.7-2.6-8.6-11.7-15.5-26.5-20.1-6.4-2-8-2.1-21-2.2zm-7.9 76.7a67 67 0 0 1-30.1-9.7 36 36 0 0 1-8.8-8.6c-.5-.9-1.3-2.4-1.7-3.5-.7-1.8-.7-2.1-.8-9.1l-.1-7.2 1.9 2a58 58 0 0 0 32.4 15.2A96 96 0 0 0 157 93c11.8-2.4 21.6-7.2 28.3-13.7l2.9-2.8-.1 7.1c-.1 6.9-.1 7.2-.8 9-1.2 3-2.4 4.9-5.2 7.7-7.5 7.6-20.4 12.7-35.9 14.1a104 104 0 0 1-14.4 0zm1.2 27.3l-3.6-.4a73 73 0 0 1-22-6.2c-7.7-3.8-12.7-8.2-15.5-13.6-1.3-2.7-1.6-4.3-1.6-12.1v-7.2l2.8 2.8c10.1 9.9 26.5 15.4 46.1 15.4a76 76 0 0 0 34.1-7.1 41 41 0 0 0 11.9-8.2l3-3-.1 7.9c-.1 7.7-.1 8-.8 9.8a20 20 0 0 1-5.4 7.8 35 35 0 0 1-10.8 7.5c-9 4.4-18.5 6.5-30.5 6.7a146 146 0 0 1-7.6 0z" fill="#f79836"/><path fill="#ffcf3d" d="M132.4 168.4c-15.1-1.4-28.4-6.5-35.8-13.8-2.3-2.2-3.5-3.8-4.6-6-1.5-3-1.7-4.3-1.7-12.1v-7l3 2.9c7.6 7.4 18.4 12.2 32.9 14.4a126 126 0 0 0 21.4.5c9.7-.9 18.2-3.2 25.7-6.8a41 41 0 0 0 11.9-8.2l3-3-.1 7.7c-.1 7.4-.1 7.7-.8 9.5-1.1 2.8-2.3 4.8-4.9 7.4a36 36 0 0 1-11 7.8c-4.4 2.2-8 3.5-13 4.7a67 67 0 0 1-17.7 2.1c-3.8 0-7.5 0-8.2 0z"/><path d="M125.2 103l-11.7-11.6 2.5.6c3.8 1.1 8.8 2 13.5 2.5a130 130 0 0 0 23.4-.4 71 71 0 0 0 18.1-5 49 49 0 0 0 14.5-9.4l2.7-2.5-.1 6.3-.4 7.6c-.9 4.4-5.2 9.7-11.2 13.8-8.7 5.9-22.7 9.8-35.2 9.7h-4.2zm27.3 26.6l-9.3-9.1 3.9-.3c9.1-.8 16.2-2.4 23.6-5.6 6-2.6 9.9-5.1 14.6-9.4l2.8-2.6-.1 7.1-.4 8.4c-.9 4.4-5.6 10.3-11.4 14-2.4 1.6-8.5 4.5-11.6 5.6l-2.5.9a720 720 0 0 1-9.4-9.1z" fill="#ec852e"/><path fill="#ffbe27" d="M173.1 149.7c-5.5-5.4-6.4-6.4-6-6.5.3-.1 1.9-.8 3.5-1.4a45 45 0 0 0 14.6-9.4l2.8-2.6-.1 6.9-.4 8.2c-.3 1.7-1.9 4.9-3.2 6.6-1.1 1.4-4.3 4.7-4.5 4.7a239 239 0 0 1-6.7-6.4z"/><path fill="#fff" d="M133.1 83.9l-3.3-.5 2.2-3.9 1.9-4c-.2-.3-6.8-1.3-7.3-1-.2.1-1.3 1.8-2.5 3.8l-2.5 3.9c-.1.1-7-.9-7.3-1-.1 0 1.1-1.8 2.5-4a16 16 0 0 0 2.2-3.9c-.1-.1-3.7-.6-7.8-1.2l-7.6-1.1c-.1 0 .2-.3.7-.6s.8-.6.9-.8.4-.5.7-.6.8-.5 1.1-.9.8-.8 1.2-1c.7-.4.8-.4 3.2 0l3.6.4c1.4 0 2.7-.4 2.7-.7 0-.2.2-.3.4-.3s3.2-4 6.4-8.5c4.1-5.7 5.3-7.5 5.2-8-.2-.9-1.3-1.3-4.7-1.7-2.4-.3-2.9-.4-2.8-.6l2.1-2.4a562 562 0 0 1 12.6 1.4c.2 0 .9-.8 1.8-2.1l1.5-2.3c.1-.2.3-.2 1.6-.1l2.8.3 1.3.1-1.3 2.2-1.3 2.3c.1 0 1.5.2 3.1.4l3 .3 1.2-2.3 1.2-2.2 2.7.3 2.9.3c.1 0-.4 1-1 2.3l-1.1 2.4c0 0 .6.1 1.4.2s1.4.2 1.4.3.6.2 1.2.2 1.2.1 1.2.2.4.2.8.2 1 .2 1.2.3l1.9.5c.2 0 .4.1.4.1s.3.2.5.1.6.1.8.3.5.3.8.3.5 0 .4.1.1.3.5.5c1.5.9 2.5 1.8 2.7 2.8.2 1.1-.1 2.8-.6 2.8-.2 0-.3.1-.3.2.1.2-.6.8-1.8 1.5-.8.5-2.8 1-4.3 1.2-1 .1-1.3.2-1.3.5 0 .2.4.4.8.5s.8.2.8.3.3.2.5.2c.6 0 4.1 1.6 5 2.3.8.6 1.6 1.9 1.8 2.7.3 1.5.2 3-.2 3.4-.3.2-.6.6-.7 1-.1.6-.3.8-1.4 1.5-.2.2-.4.4-.4.4s-.7.6-1.6 1.1c-.9.6-1.7 1-1.7.9s-.4.1-.8.3-1 .4-1.2.4-.4 0-.3.1-.2.2-.4.1-.8 0-1.2.1c-1.5.5-8.7.9-10.4.6-.5-.1-1-.1-.9 0s-.9.1-2-.1-2.2-.3-2.5-.2a9 9 0 0 1-2.1-.1 7 7 0 0 0-1.7-.1c-.1.1-.9 1.6-1.9 3.5l-2 4c-.3.6-.5.6-4.6-.1zm17.2-13.1c1-.2 1.3-.3 1.9-.3a6 6 0 0 0 2.7-1.6c0-.1.1-.3.4-.3.6 0 1-1.4.7-2.3-.1-.4-.7-1.1-1.3-1.6-1.1-.8-3.8-2-4.6-2-.2 0-.4-.1-.4-.2s-.5-.2-1.1-.3-1.3-.2-1.6-.3a183 183 0 0 0-11.5-1.5c-.1 0-5.1 8.3-5.3 8.7-.1.4.4.5 4.4 1l6.8.7c1.2 0 2.2.1 2.3.2.3.2 5.6-.1 6.6-.3zm3.4-12.8c.1-.1.4-.2.7-.2.6-.1 2.1-.8 2-1.1 0-.1.1-.2.3-.2.9 0 .9-2 .1-2.7-.7-.7-2.7-1.6-3.3-1.6-.3 0-.5-.1-.5-.1s-.4-.2-1-.3-1.1-.2-1.4-.3c-.5-.2-8.7-1.1-9-1-.2.1-4.4 6.8-4.2 6.8.3.1 7.5.9 8.8.9.9 0 1.7.1 1.8.1.3.1 5.4-.2 5.6-.4z"/></g></svg>